:SAMPLES-PER-SECOND 30
:FULLY-SPECIFIED
:DEGREES
283
root  -3.98102 40.86 -0.647735 -1.53177 -82.3142 4.24333
RightUpLeg  4.74136 -1.97153 -1.22194
RightLeg  -4.15837 -27.6799 2.41827
RightFoot  -2.09394 -0.249465 2.91884
RightToes  -3.10096e-008 1.75238e-005 3.56266e-009
Spine  -7.89681 -2.91149 -9.13834
Spine1  7.26192 -2.97424 4.13914
HEad  -5.74293 -15.4759 -2.69761
LeftShoulder1  2.90012 -5.38995 -26.4977
LeftArm  -18.0562 23.3378 -48.9873
LeftForeArm  24.9517 -72.7518 -37.5193
LeftHand  0.309563 -5.95841 -2.83559
RightShoulder  1.98126 3.57777 21.7481
RightArm  -62.4646 19.8632 7.54136
RightForeArm  75.8609 61.5276 155.189
RightHand  0.831487 2.65595 11.7296
LeftUpLeg  -0.51142 0.668355 2.6075
LeftLeg  -0.275642 4.57524 -0.188072
LeftFoot  -0.98672 0.22805 -2.45128
LeftToes  4.7633e-008 1.48299e-008 1.30754e-009
284
root  -4.11587 40.8428 -0.649172 -1.52197 -81.0322 3.99797
RightUpLeg  5.46769 -2.10911 -1.17912
RightLeg  -4.42228 -28.7886 2.63679
RightFoot  -2.31457 -0.247045 2.89248
RightToes  -3.10096e-008 1.75238e-005 3.56266e-009
Spine  -8.21826 -2.71179 -9.47468
Spine1  6.94332 -2.87752 4.93495
HEad  -5.71104 -14.0208 -2.8624
LeftShoulder1  2.99102 -5.61772 -26.6899
LeftArm  -17.239 22.8591 -49.5443
LeftForeArm  27.1069 -73.3394 -39.0387
LeftHand  0.385669 -6.08857 -3.55727
RightShoulder  2.1433 4.0596 22.1139
RightArm  -64.2935 22.3057 8.31629
RightForeArm  80.9367 56.1071 159.878
RightHand  1.19916 3.71374 14.9403
LeftUpLeg  -0.405718 0.652473 2.5837
LeftLeg  0.11147 3.26702 -0.0983971
LeftFoot  -1.28585 0.218942 -2.40309
LeftToes  4.7633e-008 1.48299e-008 1.30754e-009
285
root  -4.20274 40.83 -0.647373 -1.92638 -79.6805 4.30643
RightUpLeg  5.75296 -2.26073 -1.2154
RightLeg  -4.15798 -29.92 2.56972
RightFoot  -2.57661 -0.259886 3.09615
RightToes  -3.10096e-008 1.75238e-005 3.56266e-009
Spine  -8.89742 -2.48438 -9.22905
Spine1  7.38468 -2.54092 4.62886
HEad  -5.60913 -13.7722 -2.51386
LeftShoulder1  2.99658 -5.68126 -26.5164
LeftArm  -16.1322 22.4466 -49.8825
LeftForeArm  29.0979 -73.9106 -40.7324
LeftHand  0.394797 -6.47153 -3.51571
RightShoulder  2.22825 4.3667 22.082
RightArm  -66.9694 25.5438 8.6928
RightForeArm  82.193 53.3846 161.685
RightHand  1.33946 4.2035 15.8233
LeftUpLeg  -0.537905 0.513916 2.46432
LeftLeg  0.500214 1.98678 -0.0306473
LeftFoot  -1.4838 0.222086 -2.48439
LeftToes  4.7633e-008 1.48299e-008 1.30754e-009
286
root  -4.26579 40.8181 -0.660363 -1.79404 -78.2689 3.98656
RightUpLeg  6.34164 -2.30977 -1.0916
RightLeg  -4.55388 -31.3176 2.85225
RightFoot  -2.66401 -0.260852 3.1112
RightToes  -3.10096e-008 1.75238e-005 3.56266e-009
Spine  -9.17053 -2.1563 -8.67734
Spine1  7.71231 -2.08896 3.96181
HEad  -5.56388 -14.2556 -1.3644
LeftShoulder1  3.05534 -5.82302 -26.6574
LeftArm  -14.9528 22.4597 -49.7694
LeftForeArm  30.7592 -74.4113 -42.3989
LeftHand  0.271675 -6.28623 -2.35422
RightShoulder  2.13427 4.22517 21.3401
RightArm  -69.8013 29.3866 9.30838
RightForeArm  80.4801 53.8087 161.378
RightHand  1.29693 3.72088 16.1407
LeftUpLeg  -0.586922 0.525325 2.46862
LeftLeg  0.787675 0.642868 -0.0166194
LeftFoot  -1.57771 0.21449 -2.37041
LeftToes  4.7633e-008 1.48299e-008 1.30754e-009
287
root  -4.26583 40.8143 -0.675865 -1.88435 -77.0441 4.14142
RightUpLeg  6.35906 -2.44749 -1.13456
RightLeg  -4.44735 -32.2884 2.92892
RightFoot  -2.73107 -0.271243 3.27053
RightToes  -3.10096e-008 1.75238e-005 3.56266e-009
Spine  -9.19192 -1.59573 -7.76287
Spine1  7.88526 -1.27804 2.65435
HEad  -5.28542 -15.4105 -0.422415
LeftShoulder1  3.12746 -6.06381 -26.5841
LeftArm  -14.3554 22.6711 -49.511
LeftForeArm  30.4314 -74.3834 -42.3758
LeftHand  0.42274 -6.65916 -3.72028
RightShoulder  2.06613 4.06964 20.9862
RightArm  -72.6885 32.9086 9.08662
RightForeArm  78.7264 57.313 158.885
RightHand  1.20245 4.01358 14.5102
LeftUpLeg  -0.911905 0.331825 2.36694
LeftLeg  0.942385 -0.487022 0.0343696
LeftFoot  -1.53332 0.221479 -2.46891
LeftToes  4.7633e-008 1.48299e-008 1.30754e-009
288
root  -4.20812 40.8156 -0.715889 -1.65102 -75.9516 4.02998
RightUpLeg  6.24135 -2.5122 -1.06811
RightLeg  -4.55554 -33.3758 3.13566
RightFoot  -2.7142 -0.262854 3.13882
RightToes  -3.10096e-008 1.75238e-005 3.56266e-009
Spine  -8.7922 -1.06984 -7.23263
Spine1  7.86228 -0.655804 2.03495
HEad  -5.44126 -16.7689 0.608238
LeftShoulder1  3.1394 -6.07102 -26.688
LeftArm  -13.8885 23.5436 -49.2624
LeftForeArm  30.4552 -74.4682 -42.7522
LeftHand  0.366694 -6.35938 -3.27687
RightShoulder  1.964 4.0471 19.6199
RightArm  -74.8221 36.2254 9.52399
RightForeArm  73.3937 63.0298 153.381
RightHand  0.998103 4.40011 11.4863
LeftUpLeg  -1.34206 0.219282 2.32872
LeftLeg  0.971218 -1.32803 0.0508063
LeftFoot  -1.2804 0.220645 -2.42162
LeftToes  4.7633e-008 1.48299e-008 1.30754e-009
289
root  -4.08712 40.8203 -0.768904 -1.1347 -74.886 3.75923
RightUpLeg  5.81876 -2.53582 -0.978355
RightLeg  -4.45021 -34.3321 3.25639
RightFoot  -2.64841 -0.266151 3.19124
RightToes  -3.10096e-008 1.75238e-005 3.56266e-009
Spine  -8.42313 -0.457167 -5.94775
Spine1  8.5649 0.248219 0.30774
HEad  -6.68392 -18.662 2.51377
LeftShoulder1  3.13857 -6.09425 -26.5967
LeftArm  -13.5777 24.2073 -48.5457
LeftForeArm  29.3786 -74.1771 -41.7681
LeftHand  0.322244 -5.9852 -2.95842
RightShoulder  1.79225 3.53229 19.0136
RightArm  -77.5466 39.6146 8.97071
RightForeArm  60.5826 70.0446 141.664
RightHand  0.732773 4.37349 8.42138
LeftUpLeg  -1.91305 -0.00797166 2.30668
LeftLeg  0.813613 -2.0913 0.167251
LeftFoot  -0.86962 0.230684 -2.45982
LeftToes  4.7633e-008 1.48299e-008 1.30754e-009
290
root  -3.87183 40.8197 -0.857569 0.170059 -73.5227 2.76395
RightUpLeg  5.25877 -2.44386 -0.637021
RightLeg  -4.73369 -35.8289 3.68756
RightFoot  -2.40827 -0.245886 2.8832
RightToes  -3.10096e-008 1.75238e-005 3.56266e-009
Spine  -6.73475 -0.0189244 -4.79825
Spine1  8.15867 0.829707 -0.99659
HEad  -8.70031 -20.3211 4.39223
LeftShoulder1  3.09028 -5.97258 -26.5047
LeftArm  -13.6211 25.0327 -48.2604
LeftForeArm  27.2359 -73.5342 -39.7357
LeftHand  0.322685 -5.53151 -3.10938
RightShoulder  1.52922 2.80312 17.7401
RightArm  -80.3126 42.7481 8.79612
RightForeArm  31.8261 76.266 113.358
RightHand  0.409014 4.064 4.72089
LeftUpLeg  -2.91647 -0.226217 2.45842
LeftLeg  0.898749 -3.24146 0.365736
LeftFoot  -0.504128 0.249315 -2.59912
LeftToes  4.7633e-008 1.48299e-008 1.30754e-009
291
root  -3.62067 40.8345 -0.987587 0.592529 -72.58 2.48799
RightUpLeg  4.71459 -2.36259 -0.437463
RightLeg  -4.79044 -36.8315 3.87592
RightFoot  -2.0989 -0.228995 2.63506
RightToes  -3.10096e-008 1.75238e-005 3.56266e-009
Spine  -4.63392 0.521246 -3.67304
Spine1  7.67652 1.61894 -2.64989
HEad  -11.0646 -22.0638 6.38204
LeftShoulder1  3.14256 -6.19672 -26.2803
LeftArm  -13.8713 26.2366 -47.5844
LeftForeArm  24.6416 -72.6476 -37.243
LeftHand  0.248557 -5.52151 -2.3238
RightShoulder  1.50482 2.9048 16.8549
RightArm  -83.867 44.5649 7.07357
RightForeArm  -19.5094 75.8851 62.4749
RightHand  0.211777 3.4759 2.53389
LeftUpLeg  -3.76008 -0.270819 2.58757
LeftLeg  0.998118 -4.13446 0.339101
LeftFoot  0.168565 0.260231 -2.58907
LeftToes  4.7633e-008 1.48299e-008 1.30754e-009
292
root  -3.34009 40.85 -1.10431 1.04593 -72.4946 2.17741
RightUpLeg  3.89202 -2.35233 -0.343399
RightLeg  -4.41527 -36.9365 3.81646
RightFoot  -1.85122 -0.208756 2.3449
RightToes  -3.10096e-008 1.75238e-005 3.56266e-009
Spine  -2.43746 1.42326 -2.32346
Spine1  7.61408 2.79465 -4.18755
HEad  -14.1775 -23.9511 9.0524
LeftShoulder1  3.19644 -6.33301 -26.3827
LeftArm  -14.3381 27.0347 -46.8807
LeftForeArm  21.8625 -71.4231 -34.2468
LeftHand  0.257749 -5.47265 -2.43764
RightShoulder  1.27338 2.30611 15.1892
RightArm  -87.4501 46.2565 5.6073
RightForeArm  -50.2722 67.2908 32.4027
RightHand  0.120924 3.27876 1.38016
LeftUpLeg  -4.00844 -0.514286 2.62844
LeftLeg  0.112135 -3.78958 0.574161
LeftFoot  0.981202 0.30514 -2.8862
LeftToes  4.7633e-008 1.48299e-008 1.30754e-009
